<?xml version="1.0" standalone="no"?>
<!DOCTYPE svg PUBLIC "-//W3C//DTD SVG 20010904//EN"
 "http://www.w3.org/TR/2001/REC-SVG-20010904/DTD/svg10.dtd">
<svg version="1.0" xmlns="http://www.w3.org/2000/svg"
 width="682.000000pt" height="360.000000pt" viewBox="0 0 682.000000 360.000000"
 preserveAspectRatio="xMidYMid meet">

<g transform="translate(0.000000,360.000000) scale(0.100000,-0.100000)"
fill="#000000" stroke="none">
<path d="M2120 3045 c-19 -20 -23 -34 -21 -76 2 -61 15 -87 81 -158 60 -65 80
-120 55 -157 -30 -46 -85 -23 -85 35 0 16 -6 21 -28 21 -29 0 -29 0 -22 -47 9
-60 36 -83 97 -83 36 0 50 6 74 29 25 25 29 37 29 83 0 64 -13 91 -84 171 -30
35 -57 74 -61 89 -9 35 10 68 38 68 31 0 47 -18 47 -52 0 -25 4 -28 31 -28 31
0 32 1 26 41 -8 62 -39 89 -102 89 -42 0 -56 -5 -75 -25z"/>
<path d="M2340 2825 l0 -245 25 0 25 0 0 167 c0 92 4 163 8 158 5 -6 19 -71
31 -145 31 -184 29 -180 56 -180 26 0 25 -6 55 180 13 74 27 139 31 144 5 6 9
-63 9 -157 l0 -167 25 0 25 0 0 245 0 245 -40 0 c-22 0 -40 -4 -40 -9 0 -4
-11 -66 -24 -137 -13 -71 -27 -144 -29 -162 -11 -71 -15 -61 -47 138 -30 184
-24 170 -70 170 l-40 0 0 -245z"/>
<path d="M2735 3058 c-2 -7 -18 -101 -34 -208 -17 -107 -34 -212 -37 -232 -6
-36 -5 -38 20 -38 29 0 32 4 41 73 l6 47 43 0 43 0 9 -57 c8 -53 11 -58 37
-61 15 -2 27 -1 27 1 0 8 -59 420 -65 455 -6 30 -9 32 -46 32 -23 0 -41 -5
-44 -12z m60 -183 c8 -60 15 -112 15 -117 0 -4 -16 -8 -36 -8 -35 0 -36 1 -30
31 3 17 11 71 18 120 6 49 13 87 15 86 1 -2 9 -52 18 -112z"/>
<path d="M2920 2825 l0 -245 30 0 30 0 0 110 c0 108 0 110 23 110 21 0 25 -9
47 -107 24 -103 26 -108 53 -111 15 -2 27 1 27 6 0 6 -11 58 -25 117 -24 103
-25 109 -8 127 11 13 19 41 21 83 8 127 -14 155 -123 155 l-75 0 0 -245z m128
183 c16 -16 16 -130 0 -146 -7 -7 -25 -12 -40 -12 l-28 0 0 85 0 85 28 0 c15
0 33 -5 40 -12z"/>
<path d="M3150 3045 c0 -22 4 -25 35 -25 l35 0 0 -220 0 -220 30 0 30 0 0 220
0 220 35 0 c31 0 35 3 35 25 l0 25 -100 0 -100 0 0 -25z"/>
<path d="M3500 3045 c-19 -20 -24 -41 -32 -126 -6 -62 -6 -138 0 -197 9 -86
13 -99 36 -119 29 -25 75 -30 108 -12 15 8 22 8 28 -1 5 -7 15 -10 24 -7 14 6
16 24 14 134 l-3 128 -52 3 c-51 3 -53 2 -53 -22 0 -21 5 -26 25 -26 24 0 25
-2 25 -73 0 -43 -5 -78 -12 -85 -18 -18 -56 -14 -68 7 -6 11 -10 88 -10 178 0
174 6 198 51 191 20 -2 26 -11 33 -50 8 -41 13 -48 33 -48 21 0 23 4 23 49 0
73 -26 101 -94 101 -43 0 -57 -5 -76 -25z"/>
<path d="M3690 3064 c0 -4 20 -76 45 -160 38 -128 45 -165 45 -238 l0 -86 30
0 30 0 0 101 c0 99 13 158 85 377 3 8 -6 12 -24 12 -28 0 -29 -3 -57 -102 -15
-57 -30 -106 -33 -110 -4 -4 -19 42 -35 102 -28 108 -29 110 -57 110 -16 0
-29 -3 -29 -6z"/>
<path d="M3960 2825 l0 -245 25 0 25 0 1 168 c0 191 8 190 39 -3 26 -163 27
-165 54 -165 21 0 24 9 51 165 16 91 32 165 35 165 3 0 5 -73 5 -162 l0 -163
28 -3 27 -3 0 245 0 246 -39 0 -40 0 -10 -52 c-6 -29 -20 -107 -32 -173 -22
-124 -25 -137 -33 -114 -4 13 -56 321 -56 333 0 3 -18 6 -40 6 l-40 0 0 -245z"/>
<path d="M2330 2328 l0 -43 -44 3 c-37 3 -46 0 -65 -23 -28 -36 -27 -70 4
-101 21 -21 32 -24 77 -21 l53 3 0 109 c0 78 -4 110 -12 113 -9 2 -13 -9 -13
-40z m-16 -74 c24 -24 20 -61 -9 -80 -23 -15 -27 -15 -50 0 -17 11 -25 26 -25
46 0 45 52 66 84 34z"/>
<path d="M3340 2326 l0 -44 -40 5 c-33 5 -45 2 -65 -17 -33 -31 -33 -73 0
-105 26 -27 73 -33 93 -13 9 9 12 9 12 0 0 -7 5 -12 10 -12 6 0 10 45 10 115
0 70 -4 115 -10 115 -5 0 -10 -20 -10 -44z m-15 -76 c21 -23 14 -65 -14 -80
-21 -11 -71 2 -71 19 0 5 -3 16 -6 24 -7 19 29 57 54 57 11 0 27 -9 37 -20z"/>
<path d="M1699 2331 c-27 -28 -29 -34 -29 -111 0 -61 3 -81 13 -78 6 3 13 17
15 31 3 25 7 27 52 27 45 0 49 -2 52 -27 2 -14 9 -28 16 -31 9 -3 12 17 12 78
0 77 -2 83 -29 111 -16 16 -39 29 -51 29 -12 0 -35 -13 -51 -29z m89 -13 c7
-7 12 -29 12 -50 l0 -38 -50 0 -50 0 0 38 c0 45 14 62 50 62 14 0 31 -5 38
-12z"/>
<path d="M2856 2352 c-3 -6 -1 -14 5 -17 15 -10 25 3 12 16 -7 7 -13 7 -17 1z"/>
<path d="M3697 2354 c-4 -4 -7 -54 -7 -111 0 -79 3 -104 13 -101 6 3 13 16 15
31 3 24 7 26 55 29 68 4 67 22 0 26 l-53 3 0 49 0 49 63 3 c34 2 62 8 62 13 0
11 -137 20 -148 9z"/>
<path d="M4056 2353 c-3 -3 -6 -46 -6 -94 0 -95 13 -123 53 -117 29 4 35 29 5
26 -21 -3 -23 1 -26 50 -3 47 -1 52 17 52 12 0 21 5 21 10 0 6 -9 10 -20 10
-15 0 -20 7 -20 29 0 30 -12 46 -24 34z"/>
<path d="M4645 2348 c-9 -24 -1 -143 10 -143 13 0 19 135 6 148 -7 7 -12 5
-16 -5z"/>
<path d="M1880 2270 c-62 -62 25 -167 96 -116 25 19 12 31 -16 16 -50 -27
-103 38 -65 80 20 22 55 26 73 8 17 -17 28 -2 12 17 -18 22 -76 19 -100 -5z"/>
<path d="M2040 2270 c-12 -12 -20 -33 -20 -54 0 -50 37 -77 101 -74 l49 2 0
53 c0 65 -23 93 -75 93 -22 0 -43 -8 -55 -20z m95 -20 c37 -41 -14 -107 -63
-81 -29 16 -37 47 -18 76 20 30 56 32 81 5z"/>
<path d="M2410 2270 c-30 -30 -27 -83 6 -109 31 -25 76 -27 94 -6 18 21 6 29
-20 15 -17 -9 -29 -9 -46 -1 -40 18 -27 30 34 33 50 3 57 6 60 25 8 54 -86 85
-128 43z m88 -12 c21 -21 13 -28 -33 -28 -25 0 -45 4 -45 8 0 15 24 32 45 32
12 0 26 -5 33 -12z"/>
<path d="M2570 2214 c0 -56 3 -75 13 -72 6 3 14 28 17 58 6 60 27 83 58 64 11
-7 19 -28 22 -64 7 -74 30 -80 30 -8 0 56 12 78 41 78 27 0 49 -40 49 -87 0
-24 5 -43 10 -43 17 0 12 103 -6 129 -14 20 -22 22 -58 17 -47 -6 -42 -6 -118
-1 l-58 4 0 -75z"/>
<path d="M2860 2215 c0 -43 4 -75 10 -75 6 0 10 32 10 75 0 43 -4 75 -10 75
-6 0 -10 -32 -10 -75z"/>
<path d="M2931 2264 c-28 -35 -26 -69 4 -100 21 -21 32 -24 77 -21 l53 3 0 51
c-1 66 -23 93 -76 93 -29 0 -42 -6 -58 -26z m91 -11 c26 -23 23 -59 -7 -79
-23 -15 -27 -15 -50 0 -44 29 -28 95 24 96 8 0 23 -7 33 -17z"/>
<path d="M3410 2263 c-59 -76 47 -167 115 -98 30 30 32 64 4 99 -29 37 -89 37
-119 -1z m91 -3 c29 -16 25 -65 -6 -86 -23 -15 -27 -15 -50 0 -29 19 -33 56
-9 80 18 19 38 20 65 6z"/>
<path d="M3862 2233 c6 -74 28 -94 104 -90 l54 2 0 73 c0 57 -3 72 -15 72 -11
0 -15 -12 -15 -50 0 -42 -4 -52 -25 -66 -23 -15 -27 -15 -50 0 -21 14 -25 24
-25 66 0 39 -3 50 -16 50 -14 0 -16 -9 -12 -57z"/>
<path d="M4160 2240 c0 -41 5 -56 25 -76 21 -21 32 -24 77 -21 l53 3 0 69 c0
46 -4 70 -12 73 -9 2 -13 -11 -13 -47 0 -43 -4 -53 -25 -67 -23 -15 -27 -15
-49 0 -20 12 -26 26 -28 63 -4 67 -28 70 -28 3z"/>
<path d="M4350 2213 c0 -42 4 -73 10 -73 6 0 10 15 10 34 0 52 16 85 45 92 41
10 29 24 -20 22 l-45 -2 0 -73z"/>
<path d="M4471 2264 c-25 -32 -26 -46 -6 -83 24 -48 81 -56 120 -16 49 49 16
125 -55 125 -30 0 -43 -6 -59 -26z m90 -4 c29 -16 25 -65 -6 -86 -23 -15 -27
-15 -50 0 -29 19 -33 56 -9 80 18 19 38 20 65 6z"/>
<path d="M4645 2150 c4 -6 11 -8 16 -5 14 9 11 15 -7 15 -8 0 -12 -5 -9 -10z"/>
<path d="M3015 1815 c-260 -70 -448 -243 -531 -490 -39 -115 -45 -286 -15
-405 102 -404 484 -660 875 -586 151 29 271 93 388 207 92 90 146 190 154 285
l5 59 -26 -55 c-31 -65 -86 -153 -92 -146 -2 2 0 12 6 23 24 41 53 194 58 298
6 120 -2 127 -31 30 -24 -80 -86 -207 -99 -202 -6 2 -31 -23 -55 -54 -71 -95
-195 -179 -317 -214 -87 -26 -220 -17 -300 20 -131 59 -147 69 -203 123 -103
102 -162 248 -162 402 0 98 20 175 73 278 165 326 603 377 866 101 56 -58 94
-124 128 -218 13 -38 21 -51 17 -31 -5 31 -32 101 -68 180 -6 14 -42 57 -81
95 -57 57 -89 80 -170 119 -55 26 -113 55 -128 63 -62 33 -301 9 -390 -39 -34
-17 -29 -1 5 20 74 45 234 79 320 68 32 -5 48 -3 48 4 0 26 159 -27 262 -86
92 -54 170 -135 234 -242 43 -73 52 -68 14 8 -9 19 -20 48 -24 64 -5 19 -43
64 -104 125 -79 77 -112 101 -179 133 -149 70 -353 97 -478 63z"/>
</g>
</svg>
